<?xml version="1.0" encoding="utf-8"?>
<!-- Generator: Adobe Illustrator 24.1.0, SVG Export Plug-In . SVG Version: 6.00 Build 0)  -->
<svg version="1.1" id="Layer_1" xmlns="http://www.w3.org/2000/svg" xmlns:xlink="http://www.w3.org/1999/xlink" x="0px" y="0px"
	 viewBox="0 0 1920 1080" style="enable-background:new 0 0 1920 1080;" xml:space="preserve">
<style type="text/css">
	.st0{fill:#1D252D;}
	.st1{fill:none;stroke:#833795;}
	.st2{fill:#FFFFFF;}
	.st3{font-family:'OpenSans-SemiBold';}
	.st4{font-size:15px;}
	.st5{font-family:'OpenSans-Light';}
	.st6{font-size:12px;}
	.st7{font-size:10px;}
	.st8{font-size:16px;}
	.st9{clip-path:url(#SVGID_3_);}
</style>
<g>
	<polygon class="st0" points="662,120 662,961.9 1257.3,961.9 1257.3,120 662,120 	"/>
	<path class="st1" d="M934.4,308.9l-60.8,87.6 M984.5,308.9l60.8,87.6 M1232.9,396.3h-188 M874,396.3H686 M874,653.2H686
		 M872.5,886.6H686 M1044.9,654.2h188"/>
	<text transform="matrix(1 0 0 1 749.1613 382.9061)" class="st2 st3 st4">OM MIG</text>
	<text transform="matrix(1 0 0 1 1082.7081 382.9061)" class="st2 st3 st4">UDDANNELSER</text>
	<text transform="matrix(1 0 0 1 725.5284 637.4217)" class="st2 st3 st4">FÆRDIGHEDER</text>
	<text transform="matrix(1 0 0 1 735.63 877.5701)" class="st2 st3 st4">INTERESSER</text>
	<text transform="matrix(1 0 0 1 1090.4347 637.4217)" class="st2 st3 st4">ERFARINGER</text>
	<text transform="matrix(1 0 0 1 685.9972 422.1795)" class="st2 st5 st6">Jeg har altid været fan af teknolo-</text>
	<text transform="matrix(1 0 0 1 685.9972 436.5779)" class="st2 st5 st6">gi og computere, og det at skabe </text>
	<text transform="matrix(1 0 0 1 685.9972 450.9842)" class="st2 st5 st6">og designe noget man kan vise </text>
	<text transform="matrix(1 0 0 1 685.9972 465.3826)" class="st2 st5 st6">frem og være stolt af, synes jeg </text>
	<text transform="matrix(1 0 0 1 685.9972 479.7811)" class="st2 st5 st6">er utrolig fedt. Jeg er som person </text>
	<text transform="matrix(1 0 0 1 685.9972 494.1795)" class="st2 st5 st6">meget glad og udadvendt, og så </text>
	<text transform="matrix(1 0 0 1 685.9972 508.5858)" class="st2 st5 st6">går jeg meget op i at alle omkring </text>
	<text transform="matrix(1 0 0 1 685.9972 522.9764)" class="st2 st5 st6">mig har det godt. På en arbejdsp-</text>
	<text transform="matrix(1 0 0 1 685.9972 537.3826)" class="st2 st5 st6">lads synes jeg det er utrolig vigtigt, </text>
	<text transform="matrix(1 0 0 1 685.9972 551.7733)" class="st2 st5 st6">at der er en god balance imel-</text>
	<text transform="matrix(1 0 0 1 685.9972 566.1795)" class="st2 st5 st6">lem professionalisme og socialt </text>
	<text transform="matrix(1 0 0 1 685.9972 580.5858)" class="st2 st5 st6">velværd. </text>
	<text transform="matrix(1 0 0 1 1044.9191 422.1795)" class="st2 st5 st6">Multimediedesigner - </text>
	<text transform="matrix(1 0 0 1 1044.9191 436.5779)" class="st2 st5 st6">Erhvervsakademi Sydvest</text>
	<text transform="matrix(1 0 0 1 1044.9191 450.9842)" class="st2 st5 st6">(2019-2021)</text>
	<text transform="matrix(1 0 0 1 1044.9191 479.7811)" class="st2 st5 st6">Design and Development </text>
	<text transform="matrix(1 0 0 1 1044.9191 494.1795)" class="st2 st5 st6">Content Creation</text>
	<text transform="matrix(1 0 0 1 1044.9191 522.9764)" class="st2 st5 st6">Global Business - </text>
	<text transform="matrix(1 0 0 1 1044.9191 537.3826)" class="st2 st5 st6">Varde Handelsskole</text>
	<text transform="matrix(1 0 0 1 1044.9191 551.7733)" class="st2 st5 st6">(2015-2018)</text>
	<text transform="matrix(1 0 0 1 1044.9191 580.5858)" class="st2 st5 st6">Afsætning</text>
	<text transform="matrix(1 0 0 1 1044.9191 594.9764)" class="st2 st5 st6">Engelsk </text>
	<text transform="matrix(1 0 0 1 1045.7081 687.1248)" class="st2 st5 st6">Tjener                                  2019-Nu</text>
	<text transform="matrix(1 0 0 1 1045.7081 701.5233)" class="st2 st5 st6">(Butcher, Esjberg) </text>
	<text transform="matrix(1 0 0 1 1045.7081 730.3201)" class="st2 st5 st6">Servicemedarbejder          2018-Nu</text>
	<text transform="matrix(1 0 0 1 1045.7081 744.7264)" class="st2 st5 st6">(Dansk Bassinservice, Oksbøl)</text>
	<text transform="matrix(1 0 0 1 1045.7081 773.5233)" class="st2 st5 st6">Opvasker/Tjener            2013-2019</text>
	<text transform="matrix(1 0 0 1 1045.7081 787.9295)" class="st2 st5 st6">(Il Mandolino, Henne Strand)</text>
	<text transform="matrix(1 0 0 1 1045.7081 816.7264)" class="st2 st5 st6">På baggrund af mine tidligere </text>
	<text transform="matrix(1 0 0 1 1045.7081 831.117)" class="st2 st5 st6">og nuværende jobs har jeg fået </text>
	<text transform="matrix(1 0 0 1 1045.7081 845.5233)" class="st2 st5 st6">mange erfaringer. Bl.a. er jeg god </text>
	<text transform="matrix(1 0 0 1 1045.7081 859.9295)" class="st2 st5 st6">til at have mange bolde i luften på </text>
	<text transform="matrix(1 0 0 1 1045.7081 874.3201)" class="st2 st5 st6">samme tid og bevare overblikket i </text>
	<text transform="matrix(1 0 0 1 1045.7081 888.7264)" class="st2 st5 st6">stressede situationer. Derudover </text>
	<text transform="matrix(1 0 0 1 1045.7081 903.1248)" class="st2 st5 st6">har jeg haft utrolig meget kunde-</text>
	<text transform="matrix(1 0 0 1 1045.7081 917.5233)" class="st2 st5 st6">kontakt,  så jeg ved hvad det vil </text>
	<text transform="matrix(1 0 0 1 1045.7081 931.9217)" class="st2 st5 st6">sige at yde en god service.</text>
	<text transform="matrix(1 0 0 1 685.9972 687.1248)" class="st2 st5 st6">Adobe programme</text>
	<text transform="matrix(1 0 0 1 788.1534 687.1248)" class="st2 st5 st6">r</text>
	<text transform="matrix(1 0 0 1 685.9972 701.5233)" class="st2 st5 st6">(InDesign, Illustrator, </text>
	<text transform="matrix(1 0 0 1 685.9972 715.9295)" class="st2 st5 st6">Premiere Pro mm.</text>
	<text transform="matrix(1 0 0 1 784.4425 715.9295)" class="st2 st5 st6">)</text>
	<text transform="matrix(1 0 0 1 685.9972 744.7264)" class="st2 st5 st6">Photoshop</text>
	<text transform="matrix(1 0 0 1 685.9972 773.5233)" class="st2 st5 st6">Kodning</text>
	<text transform="matrix(1 0 0 1 685.9972 787.9295)" class="st2 st5 st6">(HTML, CSS, JS)</text>
	<text transform="matrix(1 0 0 1 685.9972 831.117)" class="st2 st5 st6">Jeg taler </text>
	<text transform="matrix(1 0 0 1 732.4191 831.117)" class="st2 st5 st6">ﬂ</text>
	<text transform="matrix(1 0 0 1 735.5597 831.117)" class="st2 st5 st6"> ydende engelsk</text>
	<text transform="matrix(1 0 0 1 822.5128 831.117)" class="st2 st5 st6"> </text>
	<text transform="matrix(1 0 0 1 685.9972 845.5233)" class="st2 st5 st6">og har kørekort</text>
	<path class="st2" d="M865.6,692.5l-1.4,1.2l0,0.2c0.2,0.7,0.3,1.5,0.3,2.2c0,5.6-4.5,10.1-10.1,10.1c-5.5,0-10.1-4.5-10.1-10.1
		c0-5.6,4.5-10.1,10.1-10.1c1.2,0,2.4,0.2,3.6,0.7l0.2,0.1l1.2-1.3l-0.4-0.2c-1.4-0.6-2.9-0.9-4.5-0.9c-6.5,0-11.7,5.3-11.7,11.8
		s5.3,11.8,11.7,11.8c6.5,0,11.7-5.3,11.7-11.8c0-1-0.1-2.1-0.4-3.1L865.6,692.5L865.6,692.5z"/>
	<polygon class="st2" points="848.4,694.9 847.2,696.4 852.3,700.9 853.4,701.9 853.4,701.9 869.7,683 868.6,682 853.6,699.4 	"/>
	<path class="st2" d="M865.6,734.2l-1.4,1.2l0,0.2c0.2,0.7,0.3,1.5,0.3,2.2c0,5.6-4.5,10.1-10.1,10.1c-5.5,0-10.1-4.5-10.1-10.1
		c0-5.6,4.5-10.1,10.1-10.1c1.2,0,2.4,0.2,3.6,0.7l0.2,0.1l1.2-1.3l-0.4-0.2c-1.4-0.6-2.9-0.9-4.5-0.9c-6.5,0-11.7,5.3-11.7,11.8
		c0,6.5,5.3,11.8,11.7,11.8c6.5,0,11.7-5.3,11.7-11.8c0-1-0.1-2.1-0.4-3.1L865.6,734.2L865.6,734.2z"/>
	<polygon class="st2" points="848.4,736.5 847.2,738 852.3,742.5 853.4,743.5 853.4,743.5 869.7,724.6 868.6,723.6 853.6,741.1 	"/>
	<path class="st2" d="M865.6,774.3l-1.4,1.2l0,0.2c0.2,0.7,0.3,1.5,0.3,2.2c0,5.6-4.5,10.1-10.1,10.1c-5.5,0-10.1-4.5-10.1-10.1
		c0-5.6,4.5-10.1,10.1-10.1c1.2,0,2.4,0.2,3.6,0.7l0.2,0.1l1.2-1.3L859,767c-1.4-0.6-2.9-0.9-4.5-0.9c-6.5,0-11.7,5.3-11.7,11.8
		c0,6.5,5.3,11.8,11.7,11.8c6.5,0,11.7-5.3,11.7-11.8c0-1-0.1-2.1-0.4-3.1L865.6,774.3L865.6,774.3z"/>
	<polygon class="st2" points="848.4,776.7 847.2,778.1 852.3,782.7 853.4,783.6 853.4,783.6 869.7,764.7 868.6,763.8 853.6,781.2 	
		"/>
	<path class="st2" d="M709.6,902c8.7,0,15.7,7,15.7,15.7s-7,15.7-15.7,15.7c-8.7,0-15.7-7-15.7-15.7C693.9,909,700.9,902,709.6,902
		L709.6,902z M697.4,909.5l1.1,4.6l5.7,1.9l4.8-3.9v-5.7l-5.5-2.2C701.1,905.4,699,907.2,697.4,909.5L697.4,909.5z M697.3,925.7
		l5.2,0.8l2.8-3.7l-1.4-5.8l-5.7-1.9l-3.2,3.9C695.2,921.4,696,923.7,697.3,925.7L697.3,925.7z M716.6,926.6l5.2-0.8
		c1.3-2,2.1-4.3,2.3-6.7l-3.2-3.9l-5.7,1.9l-1.4,5.8L716.6,926.6L716.6,926.6z M724.3,917.5c0-2.3-0.6-4.6-1.7-6.7l-0.9,3.6
		L724.3,917.5L724.3,917.5z M712.9,922.4l1.4-5.6l-4.7-3.7l-4.7,3.7l1.4,5.6H712.9L712.9,922.4z M697.5,914.4l-0.9-3.6
		c-1.1,2.1-1.7,4.4-1.7,6.7L697.5,914.4L697.5,914.4z M705,903.8l4.6,1.8l4.6-1.8C711.2,902.8,708,902.8,705,903.8L705,903.8z
		 M715.6,904.3l-5.5,2.2v5.7l4.8,3.9l5.7-1.9l1.1-4.6C720.2,907.3,718.1,905.5,715.6,904.3L715.6,904.3z M721,926.9l-4.3,0.7l-2.6,4
		C716.8,930.8,719.2,929.1,721,926.9L721,926.9z M712.6,932l3.1-4.9l-2.8-3.7h-6.8l-2.8,3.7l2.7,4.8
		C708.2,932.5,710.5,932.5,712.6,932L712.6,932L712.6,932z M704.7,931.5l-2.2-3.9l-4.2-0.7C699.9,929,702.1,930.6,704.7,931.5
		L704.7,931.5z"/>
	<path class="st2" d="M768.2,913.1h-1.8v-1.6c0-0.8-0.7-1.4-1.6-1.4s-1.6,0.6-1.6,1.4v1.6h-1.8c-0.9,0-1.6,0.6-1.6,1.4
		c0,0.8,0.7,1.4,1.6,1.4h1.8v1.6c0,0.8,0.7,1.4,1.6,1.4s1.6-0.6,1.6-1.4V916h1.8c0.9,0,1.6-0.6,1.6-1.4
		C769.8,913.7,769.1,913.1,768.2,913.1L768.2,913.1z"/>
	<path class="st2" d="M786.3,911.5c0,0.8-0.7,1.4-1.6,1.4c-0.9,0-1.6-0.6-1.6-1.4c0-0.8,0.7-1.4,1.6-1.4
		C785.7,910.1,786.3,910.7,786.3,911.5L786.3,911.5z"/>
	<path class="st2" d="M783,914.5c0,0.8-0.7,1.4-1.6,1.4s-1.6-0.6-1.6-1.4c0-0.8,0.7-1.4,1.6-1.4S783,913.8,783,914.5L783,914.5z"/>
	<path class="st2" d="M786.3,917.6c0,0.8-0.7,1.4-1.6,1.4c-0.9,0-1.6-0.6-1.6-1.4c0-0.8,0.7-1.4,1.6-1.4
		C785.7,916.2,786.3,916.8,786.3,917.6L786.3,917.6z"/>
	<path class="st2" d="M789.7,914.5c0,0.8-0.7,1.4-1.6,1.4s-1.6-0.6-1.6-1.4c0-0.8,0.7-1.4,1.6-1.4S789.7,913.8,789.7,914.5
		L789.7,914.5z"/>
	<path class="st2" d="M801.1,925.4l-3.5-13.8c-1-4-5-7.6-10.4-7.6h-24.6c-5.7,0-9.4,3.8-10.4,7.6l-3.5,13.8c-1,3.8,2.1,7.4,6.3,7.4
		c1.8,0,3.5-0.9,4.4-2.3l2.7-4.2c0.5-0.7,1.3-1.2,2.2-1.2h21.1c0.9,0,1.8,0.4,2.2,1.2l2.7,4.2c0.9,1.4,2.6,2.3,4.4,2.3
		C799,932.7,802.1,929.1,801.1,925.4L801.1,925.4z M794.8,929.9c-0.7,0-1.4-0.3-1.7-0.9l-2.7-4.2c-1-1.6-2.9-2.5-4.9-2.5h-21.1
		c-2,0-3.9,1-4.9,2.5l-2.7,4.2c-0.4,0.6-1,0.9-1.7,0.9c-2.2,0-3.8-1.9-3.3-3.9l3.5-13.8c0.8-3.2,3.8-5.4,7.4-5.4h24.7
		c3.5,0,6.6,2.2,7.4,5.4l3.5,13.8C798.6,928,797,929.9,794.8,929.9L794.8,929.9z"/>
	<path class="st2" d="M866.9,916h-3.6c-0.1,0-0.2,0-0.3,0c-0.8-0.6-1.7-1.1-2.7-1.4c2.2-1.3,3.6-3.3,3.6-5.7c0-3.8-3.8-6.9-8.5-6.9
		c-4.7,0-8.5,3.1-8.5,6.9c0,1.8,0.9,3.5,2.3,4.8h-6.3c1.4-1.2,2.3-2.9,2.3-4.8c0-3.8-3.8-6.9-8.5-6.9c-4.7,0-8.5,3.1-8.5,6.9
		c0,2.1,1.2,4.1,3.1,5.3c-1.3,0.4-2.5,1-3.6,1.8c-0.1,0-0.2,0-0.3,0h-3.6c-0.7,0-1.3,0.5-1.3,1.1v5.8c0,0.6,0.6,1.1,1.3,1.1h0.1v8.3
		c0,0.6,0.6,1.1,1.3,1.1h40.3c0.7,0,1.3-0.5,1.3-1.1V924h0.1c0.7,0,1.3-0.5,1.3-1.1v-5.8C868.3,916.5,867.7,916,866.9,916L866.9,916
		z M865.6,921.9h-2.3c-1.2,0-2.3-0.8-2.3-1.8s1-1.8,2.3-1.8h2.3V921.9L865.6,921.9z M849.6,908.9c0-2.6,2.6-4.8,5.8-4.8
		c3.2,0,5.8,2.1,5.8,4.8c0,2.6-2.6,4.8-5.8,4.8C852.2,913.7,849.6,911.5,849.6,908.9L849.6,908.9z M836.7,904.2
		c3.2,0,5.8,2.1,5.8,4.8c0,2.6-2.6,4.8-5.8,4.8c-3.2,0-5.8-2.1-5.8-4.8C830.9,906.3,833.5,904.2,836.7,904.2L836.7,904.2z
		 M825.1,918.2h2.3c1.2,0,2.3,0.8,2.3,1.8c0,1-1,1.8-2.3,1.8h-2.3V918.2L825.1,918.2z M826.6,924h0.8c2.7,0,4.9-1.8,4.9-4
		c0-1.2-0.7-2.3-1.7-3.1h0c1.4-0.7,3-1.1,4.7-1.1h12.8c-2.5,1.7-4.1,4.3-4.1,7.1v8.3h-11.7v-4.8c0-0.6-0.6-1.1-1.3-1.1
		c-0.7,0-1.3,0.5-1.3,1.1v4.8h-3.1V924L826.6,924z M864.2,931.2h-3.1v-4.8c0-0.6-0.6-1.1-1.3-1.1s-1.3,0.5-1.3,1.1v4.8h-11.7V923
		c0-3.9,3.9-7.1,8.7-7.1c1.7,0,3.3,0.4,4.7,1.1c-1.1,0.7-1.7,1.8-1.7,3.1c0,2.2,2.2,4,4.9,4h0.8L864.2,931.2L864.2,931.2z"/>
	<path class="st2" d="M1098.4,177.8H1079c-1.2,0-2.2,1-2.2,2.2v13.5c0,1.2,1,2.2,2.2,2.2h19.4c1.2,0,2.2-1,2.2-2.2v-13.5
		C1100.7,178.8,1099.7,177.8,1098.4,177.8L1098.4,177.8z M1098.4,179.3c0.1,0,0.2,0,0.3,0.1l-10,8.7l-10-8.7c0.1,0,0.2-0.1,0.3-0.1
		H1098.4L1098.4,179.3z M1098.4,194.3H1079c-0.4,0-0.7-0.3-0.7-0.7V181l10,8.6c0.1,0.1,0.3,0.2,0.5,0.2c0.2,0,0.3-0.1,0.5-0.2
		l10-8.6v12.6C1099.2,193.9,1098.8,194.3,1098.4,194.3L1098.4,194.3z"/>
	<path class="st2" d="M1097.6,238.9c-1.4,0-2.7-0.2-4-0.6c-0.6-0.2-1.4,0-1.8,0.4l-2.5,1.9c-3-1.6-4.8-3.4-6.3-6.3l1.9-2.5
		c0.5-0.5,0.7-1.2,0.4-1.8c-0.4-1.3-0.6-2.7-0.6-4c0-1-0.8-1.8-1.8-1.8h-4.2c-1,0-1.8,0.8-1.8,1.8c0,11.5,9.3,20.8,20.8,20.8
		c1,0,1.8-0.8,1.8-1.8v-4.1C1099.4,239.7,1098.6,238.9,1097.6,238.9L1097.6,238.9z M1098.2,244.8c0,0.3-0.2,0.6-0.6,0.6
		c-10.8,0-19.5-8.8-19.5-19.5c0-0.3,0.2-0.6,0.6-0.6h4.2c0.3,0,0.6,0.2,0.6,0.6c0,1.5,0.2,3,0.7,4.4c0.1,0.2,0,0.4-0.2,0.6l-2.2,2.9
		c-0.1,0.2-0.2,0.4-0.1,0.7c1.8,3.5,3.9,5.6,7.4,7.4c0.2,0.1,0.5,0.1,0.7-0.1l2.9-2.2c0.1-0.1,0.4-0.2,0.6-0.1
		c1.4,0.5,2.9,0.7,4.4,0.7c0.3,0,0.6,0.2,0.6,0.6V244.8L1098.2,244.8z"/>
	<path class="st2" d="M1088.3,269.1v-0.6c0-0.1-0.1-0.2-0.2-0.2c-0.1,0-0.2,0.1-0.2,0.2v0.6c-3.9,0.1-7.3,2-9.3,4.8
		c-0.1,0-0.1,0.1-0.1,0.1c-1,1.5-1.6,3.4-1.7,5.3c0,0,0,0.1,0,0.1c0,0,0,0.1,0,0.1c0,5.7,5,10.3,11.1,10.4v0.5
		c0,0.1,0.1,0.2,0.2,0.2s0.2-0.1,0.2-0.2v-0.5c6.1-0.1,11.1-4.7,11.1-10.4C1099.4,273.8,1094.4,269.2,1088.3,269.1L1088.3,269.1z
		 M1082.8,279.3h-3.4c0-1.8,0.5-3.5,1.3-5h2.8C1083.1,275.7,1082.9,277.4,1082.8,279.3L1082.8,279.3z M1082.9,279.6
		c0,1.8,0.3,3.5,0.7,5h-2.8c-0.8-1.5-1.2-3.2-1.2-5H1082.9L1082.9,279.6z M1080.9,273.9c1.3-2.2,3.2-3.7,5.5-4.2
		c-1.1,0.8-2.1,2.3-2.7,4.2H1080.9L1080.9,273.9z M1084.2,270.1c-1.5,0.8-2.8,2.2-3.7,3.8h-1.4
		C1080.3,272.2,1082.1,270.9,1084.2,270.1L1084.2,270.1z M1078.8,274.3h1.5c-0.8,1.5-1.2,3.2-1.2,5h-1.9
		C1077.3,277.4,1077.8,275.7,1078.8,274.3L1078.8,274.3z M1077.2,279.6h1.9c0,1.8,0.4,3.5,1.2,5h-1.5
		C1077.8,283.2,1077.2,281.5,1077.2,279.6L1077.2,279.6z M1079,285h1.4c0.9,1.7,2.2,3,3.8,3.9C1082.1,288.1,1080.2,286.7,1079,285
		L1079,285z M1080.9,285h2.8c0.6,2,1.6,3.6,2.8,4.3C1084.1,288.8,1082.1,287.2,1080.9,285L1080.9,285z M1087.9,289.5
		c-1.6-0.1-3-1.9-3.9-4.5h3.9V289.5L1087.9,289.5z M1087.9,284.6h-4c-0.4-1.5-0.7-3.2-0.7-5h4.7V284.6L1087.9,284.6z M1087.9,279.3
		h-4.7c0-1.8,0.3-3.5,0.7-5h3.9V279.3L1087.9,279.3z M1087.9,273.9h-3.8c0.8-2.6,2.2-4.3,3.8-4.4V273.9L1087.9,273.9z M1099,279.3
		h-1.9c0-1.8-0.5-3.5-1.2-5h1.5C1098.4,275.7,1099,277.4,1099,279.3L1099,279.3z M1093.4,279.6h3.4c0,1.8-0.5,3.5-1.2,5h-2.9
		C1093.1,283.2,1093.4,281.4,1093.4,279.6L1093.4,279.6z M1093.4,279.3c0-1.8-0.3-3.5-0.7-5h2.8c0.8,1.5,1.2,3.2,1.3,5H1093.4
		L1093.4,279.3z M1097.1,273.9h-1.4c-0.9-1.6-2.2-2.9-3.7-3.8C1094.1,270.9,1095.9,272.2,1097.1,273.9L1097.1,273.9z M1095.3,273.9
		h-2.7c-0.6-2-1.6-3.5-2.7-4.2C1092.1,270.2,1094,271.7,1095.3,273.9L1095.3,273.9z M1088.3,269.5c1.6,0.1,3,1.8,3.9,4.4h-3.9V269.5
		L1088.3,269.5z M1088.3,274.2h4c0.4,1.5,0.7,3.2,0.7,5h-4.7V274.2L1088.3,274.2z M1088.3,284.6v-5h4.7c0,1.8-0.3,3.5-0.7,5H1088.3
		L1088.3,284.6z M1088.3,285h3.9c-0.8,2.6-2.3,4.4-3.9,4.5V285L1088.3,285z M1092.6,285h2.8c-1.2,2.2-3.2,3.8-5.5,4.3
		C1090.9,288.6,1091.9,287,1092.6,285L1092.6,285z M1092,288.9c1.6-0.9,2.9-2.2,3.8-3.9h1.5C1096,286.7,1094.1,288.1,1092,288.9
		L1092,288.9z M1097.5,284.6h-1.5c0.7-1.5,1.2-3.2,1.2-5h1.9C1099,281.5,1098.4,283.2,1097.5,284.6L1097.5,284.6z"/>
	<text transform="matrix(1 0 0 1 1110.9034 189.2654)" class="st2 st5 st7">soellingvraa52@gmail.com</text>
	<text transform="matrix(1 0 0 1 1110.9034 241.1092)" class="st2 st5 st7">20210148</text>
	<text transform="matrix(1 0 0 1 1110.9034 287.1092)" class="st2 st5 st7">(Link til portofolie</text>
	<text transform="matrix(1 0 0 1 1188.6144 287.1092)" class="st2 st5 st7">)</text>
	<text transform="matrix(1 0 0 1 697.9972 190.0467)" class="st2 st3 st8">Tobias </text>
	<text transform="matrix(1 0 0 1 697.9972 209.242)" class="st2 st3 st8">Søllingvraa</text>
	<text transform="matrix(1 0 0 1 697.9972 247.6483)" class="st2 st5 st8">21 år</text>
	<text transform="matrix(1 0 0 1 697.9972 286.0389)" class="st2 st5 st8">6700 Esbjerg</text>
	<g>
		<defs>
			<rect id="SVGID_1_" x="675.1" y="39" width="559.9" height="559.6"/>
		</defs>
		<defs>
			<path id="SVGID_2_" d="M959,308.2c45.6,0,82.6-37,82.6-82.6c0-45.6-37-82.6-82.6-82.6c-45.6,0-82.6,37-82.6,82.6
				C876.5,271.2,913.4,308.2,959,308.2L959,308.2z"/>
		</defs>
		<clipPath id="SVGID_3_">
			<use xlink:href="#SVGID_1_"  style="overflow:visible;"/>
		</clipPath>
		<clipPath id="SVGID_4_" class="st9">
			<use xlink:href="#SVGID_2_"  style="overflow:visible;"/>
		</clipPath>
		<g style="clip-path:url(#SVGID_4_);">
			
				<image style="overflow:visible;" width="3456" height="3456" xlink:href="37FE25BEA358F7A4.jpg"  transform="matrix(0 0.162 -0.1621 0 1235.144 38.8259)">
			</image>
		</g>
	</g>
	<path class="st1" d="M959,308.2c45.6,0,82.6-37,82.6-82.6c0-45.6-37-82.6-82.6-82.6c-45.6,0-82.6,37-82.6,82.6
		C876.5,271.2,913.4,308.2,959,308.2L959,308.2z"/>
</g>
</svg>
