<?xml version="1.0" encoding="utf-8"?>
<!-- Generator: Adobe Illustrator 24.1.0, SVG Export Plug-In . SVG Version: 6.00 Build 0)  -->
<svg version="1.1" id="Layer_1" xmlns="http://www.w3.org/2000/svg" xmlns:xlink="http://www.w3.org/1999/xlink" x="0px" y="0px"
	 viewBox="0 0 1920 1080" style="enable-background:new 0 0 1920 1080;" xml:space="preserve">
<style type="text/css">
	.st0{clip-path:url(#SVGID_2_);fill:#1D252D;}
	.st1{fill:none;stroke:#833795;stroke-width:2;}
	.st2{clip-path:url(#SVGID_4_);fill:none;stroke:#833795;stroke-width:2;}
	.st3{fill:none;stroke:#82D4F0;stroke-width:2;}
	.st4{clip-path:url(#SVGID_6_);fill:none;stroke:#833795;stroke-width:2;}
	.st5{clip-path:url(#SVGID_6_);fill:none;stroke:#82D4F0;stroke-width:2;}
	.st6{clip-path:url(#SVGID_8_);fill:none;stroke:#833795;stroke-width:2;}
</style>
<g>
	<g>
		<defs>
			<rect id="SVGID_1_" width="1920" height="1080"/>
		</defs>
		<clipPath id="SVGID_2_">
			<use xlink:href="#SVGID_1_"  style="overflow:visible;"/>
		</clipPath>
		<polygon class="st0" points="-25.5,-25.5 -25.5,1113.5 1957.5,1113.5 1957.5,-25.5 -25.5,-25.5 		"/>
	</g>
	<line class="st1" x1="1353.1" y1="755.3" x2="1769.6" y2="564.8"/>
	<g>
		<defs>
			<rect id="SVGID_3_" width="1920" height="1080"/>
		</defs>
		<clipPath id="SVGID_4_">
			<use xlink:href="#SVGID_3_"  style="overflow:visible;"/>
		</clipPath>
		<line class="st2" x1="1756.5" y1="495.4" x2="1949.9" y2="175.3"/>
		<line class="st2" x1="1928.3" y1="864.8" x2="1754.9" y2="535.6"/>
	</g>
	<path class="st3" d="M1745.6,492.6c12.4,0,22.4,10,22.4,22.4c0,12.4-10,22.4-22.4,22.4c-12.4,0-22.4-10-22.4-22.4
		C1723.2,502.6,1733.2,492.6,1745.6,492.6L1745.6,492.6z"/>
	<g>
		<defs>
			<rect id="SVGID_5_" width="1920" height="1080"/>
		</defs>
		<clipPath id="SVGID_6_">
			<use xlink:href="#SVGID_5_"  style="overflow:visible;"/>
		</clipPath>
		<line class="st4" x1="-140.5" y1="470.3" x2="195.2" y2="280.4"/>
		<line class="st4" x1="213.6" y1="-14.9" x2="213.7" y2="245.8"/>
		<path class="st5" d="M608.3-3.2c-5.4-1.5-8.7-7.1-7.2-12.5c1.5-5.4,7.1-8.7,12.5-7.2c5.4,1.5,8.7,7.1,7.2,12.5
			C619.4-4.9,613.8-1.7,608.3-3.2L608.3-3.2z"/>
	</g>
	<path class="st3" d="M226.5,286.9c-10,7.4-24.1,5.3-31.4-4.7c-7.4-10-5.3-24.1,4.7-31.4c10-7.4,24.1-5.3,31.4,4.7
		C238.6,265.4,236.5,279.5,226.5,286.9L226.5,286.9z"/>
	<g>
		<defs>
			<rect id="SVGID_7_" width="1920" height="1080"/>
		</defs>
		<clipPath id="SVGID_8_">
			<use xlink:href="#SVGID_7_"  style="overflow:visible;"/>
		</clipPath>
		<line class="st6" x1="1313.1" y1="1128.8" x2="1330.6" y2="783.1"/>
	</g>
	<path class="st3" d="M1352.7,760.5c0.5,11.8-8.7,21.9-20.5,22.4c-11.8,0.5-21.8-8.7-22.4-20.5c-0.5-11.8,8.7-21.9,20.5-22.4
		C1342.1,739.5,1352.2,748.7,1352.7,760.5L1352.7,760.5z"/>
</g>
</svg>
